<svg width="60" height="60" viewBox="0 0 60 60" fill="none" xmlns="http://www.w3.org/2000/svg">
<g clip-path="url(#clip0_1761_20059)">
<path d="M17.5 45C14.75 45 12.525 47.25 12.525 50C12.525 52.75 14.75 55 17.5 55C20.25 55 22.5 52.75 22.5 50C22.5 47.25 20.25 45 17.5 45ZM2.5 5V10H7.5L16.5 28.975L13.125 35.1C12.725 35.8 12.5 36.625 12.5 37.5C12.5 40.25 14.75 42.5 17.5 42.5H47.5V37.5H18.55C18.2 37.5 17.925 37.225 17.925 36.875L18 36.575L20.25 32.5H38.875C40.75 32.5 42.4 31.475 43.25 29.925L52.2 13.7C52.4 13.35 52.5 12.925 52.5 12.5C52.5 11.125 51.375 10 50 10H13.025L10.675 5H2.5ZM42.5 45C39.75 45 37.525 47.25 37.525 50C37.525 52.75 39.75 55 42.5 55C45.25 55 47.5 52.75 47.5 50C47.5 47.25 45.25 45 42.5 45Z" fill="white"/>
</g>
<defs>
<clipPath id="clip0_1761_20059">
<rect width="60" height="60" fill="white"/>
</clipPath>
</defs>
</svg>
