<svg width="32" height="32" viewBox="0 0 32 32" fill="none" xmlns="http://www.w3.org/2000/svg">
<path d="M22.7584 18.414C19.5721 18.414 16.9654 21.0207 16.9654 24.207C16.9654 27.3933 19.5721 30 22.7584 30C25.9447 30 28.5514 27.3933 28.5514 24.207C28.5518 21.0207 25.9447 18.414 22.7584 18.414ZM25.6551 24.6899H23.2413V27.1037C23.2413 27.3933 23.0484 27.5866 22.7584 27.5866C22.4688 27.5866 22.2756 27.3937 22.2756 27.1037V24.6899H19.8618C19.5722 24.6899 19.3789 24.497 19.3789 24.207C19.3789 23.9174 19.5718 23.7241 19.8618 23.7241H22.2756V21.3103C22.2756 21.0207 22.4685 20.8274 22.7584 20.8274C23.0481 20.8274 23.2413 21.0204 23.2413 21.3103V23.7241H25.6551C25.9447 23.7241 26.138 23.9171 26.138 24.207C26.138 24.4966 25.9447 24.6899 25.6551 24.6899ZM15.0345 24.207C15.0345 24.5451 15.0826 24.8347 15.0826 25.1725H4.41367C3.88262 25.1725 3.44824 24.7381 3.44824 24.207V21.3103C3.44824 17.3515 6.44125 14.0689 10.3515 13.6345C8.51694 12.5243 7.31004 10.5449 7.31004 8.27594C7.31004 4.80008 10.11 2 13.586 2C17.0619 2 19.8619 4.8 19.8619 8.27594C19.8619 10.5449 18.655 12.5243 16.8205 13.6345C18.9447 13.876 20.7792 14.9381 22.0342 16.5313C18.124 16.869 15.0343 20.2001 15.0343 24.207H15.0345Z" fill="#009EF7"/>
</svg>
