<svg width="32" height="32" viewBox="0 0 32 32" fill="none" xmlns="http://www.w3.org/2000/svg">
<path d="M17.3332 4.66675C17.3332 4.13632 17.1225 3.62761 16.7474 3.25253C16.3723 2.87746 15.8636 2.66675 15.3332 2.66675C14.8027 2.66675 14.294 2.87746 13.919 3.25253C13.5439 3.62761 13.3332 4.13632 13.3332 4.66675V13.3334H4.6665C4.13607 13.3334 3.62736 13.5441 3.25229 13.9192C2.87722 14.2943 2.6665 14.803 2.6665 15.3334C2.6665 15.8638 2.87722 16.3726 3.25229 16.7476C3.62736 17.1227 4.13607 17.3334 4.6665 17.3334H13.3332V26.0001C13.3332 26.5305 13.5439 27.0392 13.919 27.4143C14.294 27.7894 14.8027 28.0001 15.3332 28.0001C15.8636 28.0001 16.3723 27.7894 16.7474 27.4143C17.1225 27.0392 17.3332 26.5305 17.3332 26.0001V17.3334H25.9998C26.5303 17.3334 27.039 17.1227 27.4141 16.7476C27.7891 16.3726 27.9998 15.8638 27.9998 15.3334C27.9998 14.803 27.7891 14.2943 27.4141 13.9192C27.039 13.5441 26.5303 13.3334 25.9998 13.3334H17.3332V4.66675Z" fill="#009EF7"/>
</svg>
