<svg width="61" height="60" viewBox="0 0 61 60" fill="none" xmlns="http://www.w3.org/2000/svg">
<path d="M52.35 8.3999H9.15C6.1719 8.3999 3.75 10.8218 3.75 13.7999V46.1999C3.75 49.178 6.1719 51.5999 9.15 51.5999H52.35C55.3281 51.5999 57.75 49.178 57.75 46.1999V13.7999C57.75 10.8218 55.3281 8.3999 52.35 8.3999ZM32.1 40.7999C30.3098 40.7999 28.5929 40.0887 27.327 38.8229C26.0612 37.557 25.35 35.8401 25.35 34.0499C25.35 32.2597 26.0612 30.5428 27.327 29.2769C28.5929 28.0111 30.3098 27.2999 32.1 27.2999C33.5652 27.3033 34.9885 27.7891 36.15 28.6823C34.5192 29.9135 33.45 31.8494 33.45 34.0499C33.45 36.2504 34.5192 38.1863 36.15 39.4175C34.9885 40.3107 33.5652 40.7965 32.1 40.7999ZM42.9 40.7999C41.1098 40.7999 39.3929 40.0887 38.127 38.8229C36.8612 37.557 36.15 35.8401 36.15 34.0499C36.15 32.2597 36.8612 30.5428 38.127 29.2769C39.3929 28.0111 41.1098 27.2999 42.9 27.2999C44.6902 27.2999 46.4071 28.0111 47.673 29.2769C48.9388 30.5428 49.65 32.2597 49.65 34.0499C49.65 35.8401 48.9388 37.557 47.673 38.8229C46.4071 40.0887 44.6902 40.7999 42.9 40.7999Z" fill="#009EF7"/>
</svg>
