<svg width="61" height="60" viewBox="0 0 61 60" fill="none" xmlns="http://www.w3.org/2000/svg">
<path d="M56.3286 10.8193C55.755 9.24418 54.843 7.81394 53.6569 6.62932C52.4708 5.4447 51.0395 4.53449 49.4636 3.96279C46.5189 3.0127 43.839 3.0127 38.3983 3.0127H22.0595C16.6627 3.0127 13.9373 3.0127 11.0381 3.90879C9.4593 4.48498 8.02626 5.40068 6.84007 6.59124C5.65389 7.7818 4.74348 9.2182 4.17309 10.7991C3.25 13.7253 3.25 16.4237 3.25 21.8205V38.1779C3.25 43.6017 3.25 46.2815 4.14609 49.2078C4.71973 50.7829 5.6317 52.2131 6.81778 53.3977C8.00386 54.5824 9.43521 55.4926 11.0111 56.0643C13.9373 56.9874 16.6357 56.9874 22.0409 56.9874H38.4152C43.839 56.9874 46.5374 56.9874 49.4451 56.0913C51.026 55.5179 52.4617 54.6043 53.6508 53.4152C54.8399 52.2261 55.7535 50.7903 56.3269 49.2094C57.25 46.2832 57.25 43.5848 57.25 38.1796V21.866C57.25 16.4422 57.25 13.7438 56.3269 10.8176L56.3286 10.8193ZM42.4502 21.2433L40.3492 23.3359C40.1442 23.5225 39.8778 23.6274 39.6006 23.6305C39.3234 23.6336 39.0547 23.5348 38.8455 23.3528C36.816 21.6481 34.253 20.7088 31.6026 20.6982C29.4138 20.6982 27.2335 21.4188 27.2335 23.4236C27.2335 25.4453 29.5708 26.122 32.2692 27.1329C36.9977 28.7158 40.9094 30.6919 40.9094 35.3243C40.9094 40.37 36.9977 43.8329 30.6086 44.2109L30.0196 46.9177C29.9684 47.164 29.8339 47.385 29.6387 47.5437C29.4435 47.7023 29.1996 47.7887 28.9481 47.7885H24.9131L24.7106 47.7716C24.4234 47.7058 24.1733 47.5301 24.0141 47.2822C23.8548 47.0343 23.7989 46.7338 23.8584 46.4452L24.4912 43.5882C22.0644 42.9791 19.8322 41.7631 18.0043 40.0545V40.0275C17.8017 39.8246 17.6879 39.5497 17.6879 39.263C17.6879 38.9763 17.8017 38.7014 18.0043 38.4985L20.2538 36.3182C20.4596 36.128 20.7295 36.0223 21.0098 36.0223C21.2901 36.0223 21.56 36.128 21.7658 36.3182C23.8259 38.2628 26.5626 39.3282 29.3953 39.2883C32.3215 39.2883 34.274 38.0497 34.274 36.0887C34.274 34.1278 32.2962 33.6181 28.5616 32.2208C24.5975 30.805 20.8444 28.8019 20.8444 24.1172C20.8444 18.6766 25.362 16.022 30.7234 15.7757L31.2853 13.0064C31.3372 12.7594 31.4736 12.5382 31.6711 12.3811C31.8686 12.224 32.1147 12.1407 32.367 12.1457H36.3665L36.5944 12.1727C36.7336 12.2018 36.8656 12.2581 36.983 12.3384C37.1004 12.4187 37.2008 12.5213 37.2784 12.6405C37.356 12.7596 37.4094 12.893 37.4353 13.0328C37.4613 13.1726 37.4594 13.3162 37.4297 13.4553L36.8239 16.5401C38.8639 17.214 40.7556 18.2732 42.3962 19.6604L42.4485 19.7127C42.8704 20.1616 42.8704 20.8383 42.4485 21.2416L42.4502 21.2433Z" fill="#009EF7"/>
</svg>
