<svg width="61" height="60" viewBox="0 0 61 60" fill="none" xmlns="http://www.w3.org/2000/svg">
<path fill-rule="evenodd" clip-rule="evenodd" d="M30.0008 3C23.2247 3 17.0502 5.23819 13.3974 7.06684C13.0674 7.23185 12.7598 7.39387 12.4733 7.54988C11.9063 7.8589 11.4232 8.14693 11.0392 8.40045L15.1945 14.518L17.1507 15.2965C24.7953 19.1533 35.0472 19.1533 42.6933 15.2965L44.9135 14.1444L48.8438 8.40045C48.0296 7.8694 47.1829 7.38991 46.3086 6.96483C42.6753 5.15568 36.6493 3 30.0008 3ZM20.3355 9.92458C18.864 9.64923 17.4107 9.28452 15.9836 8.83249C19.4054 7.31286 24.5058 5.70023 29.9993 5.70023C33.8051 5.70023 37.4039 6.47429 40.3801 7.45537C36.8923 7.94591 33.1705 8.77848 29.6242 9.80307C26.834 10.6101 23.5727 10.5231 20.3355 9.92458V9.92458ZM44.2775 17.5212L43.9099 17.7072C35.4987 21.9496 24.3438 21.9496 15.9326 17.7072L15.5846 17.5302C2.95052 31.3929 -6.69528 57 30.0008 57C66.6938 57 56.8125 30.9143 44.2775 17.5212ZM28.4406 30.0022C27.6449 30.0022 26.8818 30.3183 26.3191 30.881C25.7565 31.4437 25.4404 32.2068 25.4404 33.0025C25.4404 33.7982 25.7565 34.5613 26.3191 35.124C26.8818 35.6867 27.6449 36.0027 28.4406 36.0027V30.0022ZM31.4409 27.002V25.5019H28.4406V27.002C26.8492 27.002 25.323 27.6342 24.1976 28.7595C23.0723 29.8848 22.4401 31.4111 22.4401 33.0025C22.4401 34.5939 23.0723 36.1202 24.1976 37.2455C25.323 38.3708 26.8492 39.003 28.4406 39.003V45.0035C27.8202 45.0037 27.2149 44.8114 26.7082 44.4533C26.2015 44.0952 25.8183 43.5888 25.6114 43.0038C25.4789 42.6287 25.2028 42.3215 24.8438 42.1499C24.4849 41.9782 24.0724 41.9563 23.6972 42.0888C23.3221 42.2212 23.0149 42.4973 22.8433 42.8563C22.6717 43.2153 22.6497 43.6277 22.7822 44.0029C23.196 45.173 23.9623 46.186 24.9757 46.9025C25.989 47.619 27.1996 48.0037 28.4406 48.0037V49.5039H31.4409V48.0037C33.0323 48.0037 34.5586 47.3716 35.6839 46.2462C36.8092 45.1209 37.4414 43.5947 37.4414 42.0032C37.4414 40.4118 36.8092 38.8856 35.6839 37.7603C34.5586 36.6349 33.0323 36.0027 31.4409 36.0027V30.0022C32.746 30.0022 33.8576 30.8348 34.2716 32.0019C34.3331 32.1929 34.4322 32.3695 34.5631 32.5215C34.694 32.6735 34.854 32.7977 35.0337 32.8867C35.2135 32.9758 35.4093 33.0278 35.6095 33.0399C35.8097 33.052 36.0103 33.0238 36.1994 32.9569C36.3885 32.8901 36.5623 32.786 36.7105 32.6509C36.8587 32.5157 36.9783 32.3522 37.0622 32.17C37.1461 31.9878 37.1927 31.7907 37.199 31.5902C37.2054 31.3897 37.1715 31.19 37.0994 31.0028C36.6856 29.8328 35.9192 28.8198 34.9059 28.1033C33.8925 27.3868 32.682 27.002 31.4409 27.002ZM31.4409 39.003V45.0035C32.2366 45.0035 32.9997 44.6874 33.5624 44.1247C34.125 43.5621 34.4411 42.799 34.4411 42.0032C34.4411 41.2075 34.125 40.4444 33.5624 39.8818C32.9997 39.3191 32.2366 39.003 31.4409 39.003Z" fill="#009EF7"/>
</svg>
