<svg width="60" height="60" viewBox="0 0 60 60" fill="none" xmlns="http://www.w3.org/2000/svg">
<path fill-rule="evenodd" clip-rule="evenodd" d="M29.7508 3C22.9747 3 16.8002 5.23819 13.1474 7.06684C12.8174 7.23185 12.5098 7.39387 12.2233 7.54988C11.6563 7.8589 11.1732 8.14693 10.7892 8.40045L14.9445 14.518L16.9007 15.2965C24.5453 19.1533 34.7972 19.1533 42.4433 15.2965L44.6635 14.1444L48.5938 8.40045C47.7796 7.8694 46.9329 7.38991 46.0586 6.96483C42.4253 5.15568 36.3993 3 29.7508 3ZM20.0855 9.92458C18.614 9.64923 17.1607 9.28452 15.7336 8.83249C19.1554 7.31286 24.2558 5.70023 29.7493 5.70023C33.5551 5.70023 37.1539 6.47429 40.1301 7.45537C36.6423 7.94591 32.9205 8.77848 29.3742 9.80307C26.584 10.6101 23.3227 10.5231 20.0855 9.92458ZM44.0275 17.5212L43.6599 17.7072C35.2487 21.9496 24.0938 21.9496 15.6826 17.7072L15.3346 17.5302C2.70052 31.3929 -6.94528 57 29.7508 57C66.4438 57 56.5625 30.9143 44.0275 17.5212ZM28.1906 30.0022C27.3949 30.0022 26.6318 30.3183 26.0691 30.881C25.5065 31.4437 25.1904 32.2068 25.1904 33.0025C25.1904 33.7982 25.5065 34.5613 26.0691 35.124C26.6318 35.6866 27.3949 36.0027 28.1906 36.0027V30.0022ZM31.1909 27.002V25.5019H28.1906V27.002C26.5992 27.002 25.073 27.6342 23.9476 28.7595C22.8223 29.8848 22.1901 31.4111 22.1901 33.0025C22.1901 34.5939 22.8223 36.1202 23.9476 37.2455C25.073 38.3708 26.5992 39.003 28.1906 39.003V45.0035C27.5702 45.0037 26.9649 44.8114 26.4582 44.4533C25.9515 44.0952 25.5683 43.5888 25.3614 43.0038C25.2289 42.6287 24.9528 42.3215 24.5938 42.1499C24.2349 41.9782 23.8224 41.9563 23.4472 42.0888C23.0721 42.2212 22.7649 42.4973 22.5933 42.8563C22.4217 43.2153 22.3997 43.6277 22.5322 44.0029C22.946 45.173 23.7123 46.186 24.7257 46.9025C25.739 47.619 26.9496 48.0037 28.1906 48.0037V49.5039H31.1909V48.0037C32.7823 48.0037 34.3086 47.3716 35.4339 46.2462C36.5592 45.1209 37.1914 43.5947 37.1914 42.0033C37.1914 40.4118 36.5592 38.8856 35.4339 37.7603C34.3086 36.6349 32.7823 36.0027 31.1909 36.0027V30.0022C32.496 30.0022 33.6076 30.8348 34.0216 32.0019C34.0831 32.1929 34.1822 32.3695 34.3131 32.5215C34.444 32.6735 34.604 32.7977 34.7837 32.8867C34.9635 32.9758 35.1593 33.0278 35.3595 33.0399C35.5597 33.052 35.7603 33.0238 35.9494 32.9569C36.1385 32.8901 36.3123 32.786 36.4605 32.6509C36.6087 32.5157 36.7283 32.3522 36.8122 32.17C36.8961 31.9878 36.9427 31.7907 36.949 31.5902C36.9554 31.3897 36.9215 31.19 36.8494 31.0028C36.4356 29.8328 35.6692 28.8198 34.6559 28.1033C33.6425 27.3868 32.432 27.002 31.1909 27.002ZM31.1909 39.003V45.0035C31.9866 45.0035 32.7497 44.6874 33.3124 44.1247C33.875 43.5621 34.1911 42.799 34.1911 42.0033C34.1911 41.2075 33.875 40.4444 33.3124 39.8818C32.7497 39.3191 31.9866 39.003 31.1909 39.003Z" fill="#009EF7"/>
</svg>
