<svg width="61" height="60" viewBox="0 0 61 60" fill="none" xmlns="http://www.w3.org/2000/svg">
<path fill-rule="evenodd" clip-rule="evenodd" d="M30.4174 3C23.6414 3 17.4668 5.23819 13.814 7.06684C13.484 7.23185 13.1765 7.39387 12.89 7.54988C12.3229 7.8589 11.8399 8.14693 11.4558 8.40045L15.6112 14.518L17.5674 15.2965C25.212 19.1533 35.4638 19.1533 43.11 15.2965L45.3302 14.1444L49.2605 8.40045C48.4463 7.8694 47.5995 7.38991 46.7253 6.96483C43.092 5.15568 37.066 3 30.4174 3ZM20.7521 9.92458C19.2807 9.64923 17.8274 9.28452 16.4003 8.83249C19.822 7.31286 24.9225 5.70023 30.4159 5.70023C34.2217 5.70023 37.8205 6.47429 40.7968 7.45537C37.309 7.94591 33.5872 8.77848 30.0409 9.80307C27.2507 10.6101 23.9894 10.5231 20.7521 9.92458ZM44.6941 17.5212L44.3266 17.7072C35.9154 21.9496 24.7605 21.9496 16.3493 17.7072L16.0012 17.5302C3.36718 31.3929 -6.27863 57 30.4174 57C67.1105 57 57.2292 30.9143 44.6941 17.5212ZM28.8573 30.0022C28.0616 30.0022 27.2985 30.3183 26.7358 30.881C26.1731 31.4437 25.857 32.2068 25.857 33.0025C25.857 33.7982 26.1731 34.5613 26.7358 35.124C27.2985 35.6866 28.0616 36.0027 28.8573 36.0027V30.0022ZM31.8575 27.002V25.5019H28.8573V27.002C27.2659 27.002 25.7396 27.6342 24.6143 28.7595C23.489 29.8848 22.8568 31.4111 22.8568 33.0025C22.8568 34.5939 23.489 36.1202 24.6143 37.2455C25.7396 38.3708 27.2659 39.003 28.8573 39.003V45.0035C28.2368 45.0037 27.6316 44.8114 27.1249 44.4533C26.6182 44.0952 26.235 43.5888 26.0281 43.0038C25.8956 42.6287 25.6195 42.3215 25.2605 42.1499C24.9015 41.9782 24.4891 41.9563 24.1139 42.0888C23.7387 42.2212 23.4315 42.4973 23.2599 42.8563C23.0883 43.2153 23.0663 43.6277 23.1988 44.0029C23.6126 45.173 24.379 46.186 25.3923 46.9025C26.4057 47.619 27.6162 48.0037 28.8573 48.0037V49.5039H31.8575V48.0037C33.449 48.0037 34.9752 47.3716 36.1005 46.2462C37.2259 45.1209 37.858 43.5947 37.858 42.0033C37.858 40.4118 37.2259 38.8856 36.1005 37.7603C34.9752 36.6349 33.449 36.0027 31.8575 36.0027V30.0022C33.1627 30.0022 34.2742 30.8348 34.6883 32.0019C34.7497 32.1929 34.8488 32.3695 34.9797 32.5215C35.1106 32.6735 35.2707 32.7977 35.4504 32.8867C35.6301 32.9758 35.8259 33.0278 36.0261 33.0399C36.2263 33.052 36.4269 33.0238 36.6161 32.9569C36.8052 32.8901 36.979 32.786 37.1272 32.6509C37.2754 32.5157 37.395 32.3522 37.4789 32.17C37.5628 31.9878 37.6093 31.7907 37.6157 31.5902C37.6221 31.3897 37.5882 31.19 37.516 31.0028C37.1022 29.8328 36.3359 28.8198 35.3225 28.1033C34.3092 27.3868 33.0986 27.002 31.8575 27.002ZM31.8575 39.003V45.0035C32.6533 45.0035 33.4164 44.6874 33.979 44.1247C34.5417 43.5621 34.8578 42.799 34.8578 42.0033C34.8578 41.2075 34.5417 40.4444 33.979 39.8818C33.4164 39.3191 32.6533 39.003 31.8575 39.003Z" fill="#7239EA"/>
</svg>
