<svg width="61" height="60" viewBox="0 0 61 60" fill="none" xmlns="http://www.w3.org/2000/svg">
<path fill-rule="evenodd" clip-rule="evenodd" d="M30.0841 3C23.308 3 17.1335 5.23819 13.4807 7.06684C13.1507 7.23185 12.8432 7.39387 12.5566 7.54988C11.9896 7.8589 11.5065 8.14693 11.1225 8.40045L15.2779 14.518L17.234 15.2965C24.8787 19.1533 35.1305 19.1533 42.7766 15.2965L44.9968 14.1444L48.9272 8.40045C48.1129 7.8694 47.2662 7.38991 46.3919 6.96483C42.7586 5.15568 36.7326 3 30.0841 3ZM20.4188 9.92458C18.9473 9.64923 17.494 9.28452 16.0669 8.83249C19.4887 7.31286 24.5891 5.70023 30.0826 5.70023C33.8884 5.70023 37.4872 6.47429 40.4635 7.45537C36.9757 7.94591 33.2539 8.77848 29.7076 9.80307C26.9173 10.6101 23.6561 10.5231 20.4188 9.92458ZM44.3608 17.5212L43.9933 17.7072C35.5821 21.9496 24.4271 21.9496 16.0159 17.7072L15.6679 17.5302C3.03384 31.3929 -6.61196 57 30.0841 57C66.7771 57 56.8958 30.9143 44.3608 17.5212ZM28.524 30.0022C27.7282 30.0022 26.9651 30.3183 26.4025 30.881C25.8398 31.4437 25.5237 32.2068 25.5237 33.0025C25.5237 33.7982 25.8398 34.5613 26.4025 35.124C26.9651 35.6866 27.7282 36.0027 28.524 36.0027V30.0022ZM31.5242 27.002V25.5019H28.524V27.002C26.9325 27.002 25.4063 27.6342 24.281 28.7595C23.1557 29.8848 22.5235 31.4111 22.5235 33.0025C22.5235 34.5939 23.1557 36.1202 24.281 37.2455C25.4063 38.3708 26.9325 39.003 28.524 39.003V45.0035C27.9035 45.0037 27.2982 44.8114 26.7915 44.4533C26.2849 44.0952 25.9017 43.5888 25.6947 43.0038C25.5622 42.6287 25.2861 42.3215 24.9272 42.1499C24.5682 41.9782 24.1557 41.9563 23.7806 42.0888C23.4054 42.2212 23.0982 42.4973 22.9266 42.8563C22.755 43.2153 22.733 43.6277 22.8655 44.0029C23.2793 45.173 24.0456 46.186 25.059 46.9025C26.0723 47.619 27.2829 48.0037 28.524 48.0037V49.5039H31.5242V48.0037C33.1156 48.0037 34.6419 47.3716 35.7672 46.2462C36.8925 45.1209 37.5247 43.5947 37.5247 42.0033C37.5247 40.4118 36.8925 38.8856 35.7672 37.7603C34.6419 36.6349 33.1156 36.0027 31.5242 36.0027V30.0022C32.8293 30.0022 33.9409 30.8348 34.3549 32.0019C34.4164 32.1929 34.5155 32.3695 34.6464 32.5215C34.7773 32.6735 34.9373 32.7977 35.1171 32.8867C35.2968 32.9758 35.4926 33.0278 35.6928 33.0399C35.893 33.052 36.0936 33.0238 36.2827 32.9569C36.4719 32.8901 36.6457 32.786 36.7939 32.6509C36.9421 32.5157 37.0617 32.3522 37.1456 32.17C37.2295 31.9878 37.276 31.7907 37.2824 31.5902C37.2887 31.3897 37.2548 31.19 37.1827 31.0028C36.7689 29.8328 36.0026 28.8198 34.9892 28.1033C33.9758 27.3868 32.7653 27.002 31.5242 27.002ZM31.5242 39.003V45.0035C32.3199 45.0035 33.0831 44.6874 33.6457 44.1247C34.2084 43.5621 34.5245 42.799 34.5245 42.0033C34.5245 41.2075 34.2084 40.4444 33.6457 39.8818C33.0831 39.3191 32.3199 39.003 31.5242 39.003Z" fill="#50CD89"/>
</svg>
