<svg width="61" height="60" viewBox="0 0 61 60" fill="none" xmlns="http://www.w3.org/2000/svg">
<rect x="0.333313" width="60" height="60" rx="8" fill="#50CD89"/>
<path d="M14.7182 31.041V32.614C14.7182 33.0303 15.0423 33.4005 15.5047 33.4005L17.3553 33.4008C17.7716 33.4008 18.1418 33.0768 18.1418 32.6143V31.0875C19.5298 30.81 20.64 30.2549 21.473 29.3757C22.3982 28.4505 22.8611 27.2012 22.8611 25.7669C22.8611 25.3967 22.8149 25.0266 22.7684 24.6564C22.7223 24.3324 22.6297 24.0087 22.537 23.7311C22.4444 23.4536 22.2595 23.176 22.0742 22.8985C21.8893 22.6671 21.7041 22.4357 21.5191 22.2508C21.3342 22.0659 21.1028 21.8806 20.7788 21.6957C20.5012 21.5108 20.2237 21.3717 19.9923 21.2329C19.7147 21.0941 19.4372 20.9553 19.067 20.8166C18.6969 20.6778 18.3732 20.5852 18.0492 20.4464C17.6793 20.3534 17.3553 20.2608 16.8928 20.122C15.9676 19.8445 15.3198 19.5669 14.9496 19.2894C14.6256 19.058 14.4868 18.8266 14.4868 18.5029C14.4868 18.1789 14.6256 17.9478 14.857 17.7625C15.1345 17.5776 15.5973 17.4385 16.1525 17.4385C17.2629 17.4385 18.4196 17.8087 19.5763 18.5952C19.9003 18.8266 20.3628 18.734 20.5942 18.4564L22.121 16.5132C22.2598 16.3283 22.3059 16.143 22.2598 15.9116C22.2136 15.7267 22.121 15.5415 21.9822 15.4027C21.4733 15.0325 20.8717 14.6623 20.224 14.3848C19.5301 14.0608 18.8359 13.8297 18.0955 13.6445V11.7939C18.0955 11.3315 17.7715 11.0074 17.3552 11.0074H15.4582C15.0418 11.0074 14.6717 11.3315 14.6717 11.7939V13.5057C13.2836 13.7371 12.1269 14.2922 11.3404 15.1714C10.4613 16.1431 9.99886 17.3459 9.99886 18.734C9.99886 19.058 10.045 19.3817 10.0915 19.7058C10.1376 20.0298 10.2303 20.3073 10.3229 20.5849C10.4155 20.8625 10.5543 21.0939 10.6931 21.3253C10.8318 21.5567 11.0171 21.7881 11.202 21.973C11.3869 22.1579 11.5722 22.3432 11.7571 22.4819C11.942 22.6669 12.1734 22.806 12.451 22.9447C12.6824 23.0835 12.9599 23.2223 13.1913 23.3149C13.4227 23.4075 13.7003 23.5463 14.024 23.6389C14.348 23.7316 14.5791 23.8239 14.8566 23.9165C15.088 24.0091 15.3656 24.1014 15.7358 24.1941C16.106 24.2867 16.3835 24.379 16.661 24.4716C16.8924 24.5642 17.1238 24.6565 17.3549 24.7492C17.5398 24.8418 17.7251 24.9341 17.8639 25.0267C18.0026 25.1193 18.0953 25.2116 18.1414 25.3043C18.234 25.3969 18.2802 25.4892 18.2802 25.6283C18.3263 25.7671 18.3263 25.8597 18.3263 26.0446C18.3263 26.4148 18.1876 26.6923 17.91 26.9238C17.2161 27.4327 15.8281 27.3866 14.44 26.8311C13.7923 26.5536 13.1907 26.1834 12.6356 25.6745C12.4968 25.5357 12.2654 25.4895 12.0805 25.4895C11.8955 25.4895 11.7103 25.5822 11.5715 25.7671L9.99852 27.6641C9.72097 27.9882 9.76712 28.4506 10.0447 28.7282C11.3405 29.931 12.9138 30.7175 14.7181 31.0412L14.7182 31.041Z" fill="white"/>
<path d="M50.2514 44.9211H46.6425V21.2324C46.6425 20.6773 46.2262 20.2606 45.6708 20.2606H39.6099C39.1009 20.2606 38.6384 20.6773 38.6384 21.2324V44.9211H34.2893V29.2828C34.2893 28.7277 33.8729 28.3111 33.3175 28.3111H27.303C26.7479 28.3111 26.3313 28.7274 26.3313 29.2828V44.8748H21.9821V37.3797C21.9821 36.8245 21.5657 36.4079 21.0103 36.4079H14.9494C14.3943 36.4079 13.9776 36.8242 13.9776 37.3797V44.9213L10.3691 44.9209C9.25865 44.9209 8.33331 45.8462 8.33331 46.9568C8.33331 48.0672 9.25857 48.9926 10.3691 48.9926H50.2976C51.408 48.9926 52.3334 48.0673 52.3334 46.9568C52.2869 45.8001 51.3616 44.9209 50.2511 44.9209L50.2514 44.9211Z" fill="white"/>
</svg>
