<svg width="60" height="60" viewBox="0 0 60 60" fill="none" xmlns="http://www.w3.org/2000/svg">
<rect width="60" height="60" rx="8" fill="#009EF7"/>
<path d="M14.3849 31.041V32.614C14.3849 33.0303 14.709 33.4005 15.1714 33.4005L17.022 33.4008C17.4383 33.4008 17.8085 33.0768 17.8085 32.6143V31.0875C19.1965 30.81 20.3067 30.2549 21.1397 29.3757C22.0649 28.4505 22.5278 27.2012 22.5278 25.7669C22.5278 25.3967 22.4816 25.0266 22.4351 24.6564C22.389 24.3324 22.2964 24.0087 22.2037 23.7311C22.1111 23.4536 21.9262 23.176 21.7409 22.8985C21.556 22.6671 21.3708 22.4357 21.1858 22.2508C21.0009 22.0659 20.7695 21.8806 20.4455 21.6957C20.1679 21.5108 19.8904 21.3717 19.659 21.2329C19.3814 21.0941 19.1039 20.9553 18.7337 20.8166C18.3636 20.6778 18.0399 20.5852 17.7159 20.4464C17.346 20.3534 17.022 20.2608 16.5595 20.122C15.6343 19.8445 14.9865 19.5669 14.6163 19.2894C14.2923 19.058 14.1535 18.8266 14.1535 18.5029C14.1535 18.1789 14.2923 17.9478 14.5237 17.7625C14.8012 17.5776 15.264 17.4385 15.8192 17.4385C16.9296 17.4385 18.0863 17.8087 19.243 18.5952C19.567 18.8266 20.0295 18.734 20.2609 18.4564L21.7877 16.5132C21.9265 16.3283 21.9726 16.143 21.9265 15.9116C21.8803 15.7267 21.7877 15.5415 21.6489 15.4027C21.14 15.0325 20.5384 14.6623 19.8907 14.3848C19.1968 14.0608 18.5026 13.8297 17.7622 13.6445V11.7939C17.7622 11.3315 17.4382 11.0074 17.0219 11.0074H15.1249C14.7085 11.0074 14.3384 11.3315 14.3384 11.7939V13.5057C12.9503 13.7371 11.7936 14.2922 11.0071 15.1714C10.128 16.1431 9.66556 17.3459 9.66556 18.734C9.66556 19.058 9.71171 19.3817 9.75818 19.7058C9.80433 20.0298 9.89696 20.3073 9.98959 20.5849C10.0822 20.8625 10.221 21.0939 10.3598 21.3253C10.4985 21.5567 10.6838 21.7881 10.8687 21.973C11.0536 22.1579 11.2389 22.3432 11.4238 22.4819C11.6087 22.6669 11.8401 22.806 12.1177 22.9447C12.3491 23.0835 12.6266 23.2223 12.858 23.3149C13.0894 23.4075 13.367 23.5463 13.6907 23.6389C14.0147 23.7316 14.2458 23.8239 14.5233 23.9165C14.7547 24.0091 15.0323 24.1014 15.4025 24.1941C15.7727 24.2867 16.0502 24.379 16.3277 24.4716C16.5591 24.5642 16.7905 24.6565 17.0216 24.7492C17.2065 24.8418 17.3918 24.9341 17.5306 25.0267C17.6693 25.1193 17.762 25.2116 17.8081 25.3043C17.9007 25.3969 17.9469 25.4892 17.9469 25.6283C17.993 25.7671 17.993 25.8597 17.993 26.0446C17.993 26.4148 17.8543 26.6923 17.5767 26.9238C16.8828 27.4327 15.4948 27.3866 14.1067 26.8311C13.459 26.5536 12.8574 26.1834 12.3023 25.6745C12.1635 25.5357 11.9321 25.4895 11.7472 25.4895C11.5622 25.4895 11.377 25.5822 11.2382 25.7671L9.66522 27.6641C9.38767 27.9882 9.43382 28.4506 9.71137 28.7282C11.0072 29.931 12.5805 30.7175 14.3848 31.0412L14.3849 31.041Z" fill="white"/>
<path d="M49.9181 44.9211H46.3092V21.2324C46.3092 20.6773 45.8929 20.2606 45.3375 20.2606H39.2766C38.7676 20.2606 38.3051 20.6773 38.3051 21.2324V44.9211H33.9559V29.2828C33.9559 28.7277 33.5396 28.3111 32.9842 28.3111H26.9697C26.4146 28.3111 25.9979 28.7274 25.9979 29.2828V44.8748H21.6488V37.3797C21.6488 36.8245 21.2324 36.4079 20.677 36.4079H14.6161C14.061 36.4079 13.6443 36.8242 13.6443 37.3797V44.9213L10.0358 44.9209C8.92534 44.9209 8 45.8462 8 46.9568C8 48.0672 8.92526 48.9926 10.0358 48.9926H49.9642C51.0747 48.9926 52.0001 48.0673 52.0001 46.9568C51.9536 45.8001 51.0283 44.9209 49.9178 44.9209L49.9181 44.9211Z" fill="white"/>
</svg>
