<svg width="61" height="60" viewBox="0 0 61 60" fill="none" xmlns="http://www.w3.org/2000/svg">
<rect x="0.666656" width="60" height="60" rx="8" fill="#7239EA"/>
<path d="M15.0516 31.041V32.614C15.0516 33.0303 15.3756 33.4005 15.8381 33.4005L17.6886 33.4008C18.1049 33.4008 18.4751 33.0768 18.4751 32.6143V31.0875C19.8632 30.81 20.9734 30.2549 21.8063 29.3757C22.7316 28.4505 23.1944 27.2012 23.1944 25.7669C23.1944 25.3967 23.1483 25.0266 23.1018 24.6564C23.0557 24.3324 22.963 24.0087 22.8704 23.7311C22.7778 23.4536 22.5929 23.176 22.4076 22.8985C22.2227 22.6671 22.0374 22.4357 21.8525 22.2508C21.6676 22.0659 21.4362 21.8806 21.1122 21.6957C20.8346 21.5108 20.557 21.3717 20.3257 21.2329C20.0481 21.0941 19.7705 20.9553 19.4004 20.8166C19.0302 20.6778 18.7065 20.5852 18.3825 20.4464C18.0127 20.3534 17.6887 20.2608 17.2262 20.122C16.3009 19.8445 15.6532 19.5669 15.283 19.2894C14.9589 19.058 14.8202 18.8266 14.8202 18.5029C14.8202 18.1789 14.9589 17.9478 15.1903 17.7625C15.4679 17.5776 15.9307 17.4385 16.4858 17.4385C17.5963 17.4385 18.753 17.8087 19.9097 18.5952C20.2337 18.8266 20.6962 18.734 20.9275 18.4564L22.4543 16.5132C22.5931 16.3283 22.6393 16.143 22.5931 15.9116C22.547 15.7267 22.4543 15.5415 22.3156 15.4027C21.8066 15.0325 21.2051 14.6623 20.5573 14.3848C19.8635 14.0608 19.1692 13.8297 18.4289 13.6445V11.7939C18.4289 11.3315 18.1049 11.0074 17.6885 11.0074H15.7915C15.3752 11.0074 15.005 11.3315 15.005 11.7939V13.5057C13.6169 13.7371 12.4602 14.2922 11.6738 15.1714C10.7946 16.1431 10.3322 17.3459 10.3322 18.734C10.3322 19.058 10.3784 19.3817 10.4248 19.7058C10.471 20.0298 10.5636 20.3073 10.6562 20.5849C10.7489 20.8625 10.8876 21.0939 11.0264 21.3253C11.1652 21.5567 11.3504 21.7881 11.5354 21.973C11.7203 22.1579 11.9055 22.3432 12.0905 22.4819C12.2754 22.6669 12.5068 22.806 12.7844 22.9447C13.0158 23.0835 13.2933 23.2223 13.5247 23.3149C13.7561 23.4075 14.0336 23.5463 14.3573 23.6389C14.6814 23.7316 14.9124 23.8239 15.19 23.9165C15.4214 24.0091 15.6989 24.1014 16.0691 24.1941C16.4393 24.2867 16.7169 24.379 16.9944 24.4716C17.2258 24.5642 17.4572 24.6565 17.6883 24.7492C17.8732 24.8418 18.0584 24.9341 18.1972 25.0267C18.336 25.1193 18.4286 25.2116 18.4748 25.3043C18.5674 25.3969 18.6135 25.4892 18.6135 25.6283C18.6597 25.7671 18.6597 25.8597 18.6597 26.0446C18.6597 26.4148 18.5209 26.6923 18.2434 26.9238C17.5495 27.4327 16.1614 27.3866 14.7733 26.8311C14.1256 26.5536 13.5241 26.1834 12.9689 25.6745C12.8302 25.5357 12.5988 25.4895 12.4138 25.4895C12.2289 25.4895 12.0436 25.5822 11.9049 25.7671L10.3319 27.6641C10.0543 27.9882 10.1005 28.4506 10.378 28.7282C11.6738 29.931 13.2473 30.7173 15.0516 31.041Z" fill="white"/>
<path d="M50.5847 44.9211H46.9759V21.2324C46.9759 20.6773 46.5596 20.2606 46.0041 20.2606H39.9432C39.4343 20.2606 38.9718 20.6773 38.9718 21.2324V44.9211H34.6226V29.2828C34.6226 28.7277 34.2063 28.3111 33.6508 28.3111H27.6364C27.0813 28.3111 26.6646 28.7274 26.6646 29.2828V44.8748H22.3154V37.3797C22.3154 36.8245 21.8991 36.4079 21.3436 36.4079H15.2828C14.7276 36.4079 14.311 36.8242 14.311 37.3797V44.9213L10.7025 44.9209C9.592 44.9209 8.66666 45.8462 8.66666 46.9568C8.66666 48.0672 9.59191 48.9926 10.7025 48.9926H50.6309C51.7414 48.9926 52.6667 48.0673 52.6667 46.9568C52.6203 45.8001 51.695 44.9209 50.5845 44.9209L50.5847 44.9211Z" fill="white"/>
</svg>
