<svg width="12" height="20" viewBox="0 0 12 20" fill="none" xmlns="http://www.w3.org/2000/svg">
<path d="M0.533691 9.96143C0.533691 10.3545 0.679688 10.6914 0.994141 10.9834L9.73145 19.541C9.97852 19.7881 10.293 19.9229 10.6636 19.9229C11.4048 19.9229 12 19.3389 12 18.5864C12 18.2158 11.8428 17.8901 11.5957 17.6318L3.72314 9.96143L11.5957 2.29102C11.8428 2.03271 12 1.6958 12 1.33643C12 0.583984 11.4048 0 10.6636 0C10.293 0 9.97852 0.134766 9.73145 0.381836L0.994141 8.92822C0.679688 9.23145 0.533691 9.56836 0.533691 9.96143Z" fill="white"/>
</svg>
