<svg width="32" height="32" viewBox="0 0 32 32" fill="none" xmlns="http://www.w3.org/2000/svg">
<path fill-rule="evenodd" clip-rule="evenodd" d="M2 7.00017C2 5.89619 3.0453 5 4.33321 5H27.6668C28.9547 5 30 5.89619 30 7.00017C30 8.10381 28.9547 9 27.6668 9H4.33321C3.0453 9 2 8.10381 2 7.00017Z" fill="#009EF7"/>
<path fill-rule="evenodd" clip-rule="evenodd" d="M2 16.0003C2 14.8962 3.04821 14 4.33968 14H27.6603C28.9518 14 30 14.8962 30 16.0003C30 17.1038 28.9518 18 27.6603 18H4.33968C3.04821 18 2 17.1038 2 16.0003Z" fill="#009EF7"/>
<path fill-rule="evenodd" clip-rule="evenodd" d="M2 25.0003C2 23.8962 3.04821 23 4.33968 23H27.6603C28.9518 23 30 23.8962 30 25.0003C30 26.1038 28.9518 27 27.6603 27H4.33968C3.04821 27 2 26.1038 2 25.0003Z" fill="#009EF7"/>
</svg>
