<svg width="61" height="61" viewBox="0 0 61 61" fill="none" xmlns="http://www.w3.org/2000/svg">
<path d="M48 8H13C10.25 8 8 10.25 8 13V48C8 50.75 10.25 53 13 53H48C50.75 53 53 50.75 53 48V13C53 10.25 50.75 8 48 8ZM30.5 15.5C35.325 15.5 39.25 19.425 39.25 24.25C39.25 29.075 35.325 33 30.5 33C25.675 33 21.75 29.075 21.75 24.25C21.75 19.425 25.675 15.5 30.5 15.5ZM48 48H13V47.425C13 45.875 13.7 44.425 14.9 43.475C19.175 40.05 24.6 38 30.5 38C36.4 38 41.825 40.05 46.1 43.475C47.3 44.425 48 45.9 48 47.425V48Z" fill="#009EF7"/>
</svg>
