<svg width="24" height="24" viewBox="0 0 24 24" fill="none" xmlns="http://www.w3.org/2000/svg">
<path fill-rule="evenodd" clip-rule="evenodd" d="M12 3C7.02955 3 3 7.02955 3 12C3 16.9705 7.02955 21 12 21C16.9705 21 21 16.9705 21 12C21 7.02955 16.9705 3 12 3ZM8.72727 11.1818C8.51028 11.1818 8.30217 11.268 8.14873 11.4215C7.99529 11.5749 7.90909 11.783 7.90909 12C7.90909 12.217 7.99529 12.4251 8.14873 12.5785C8.30217 12.732 8.51028 12.8182 8.72727 12.8182H15.2727C15.4897 12.8182 15.6978 12.732 15.8513 12.5785C16.0047 12.4251 16.0909 12.217 16.0909 12C16.0909 11.783 16.0047 11.5749 15.8513 11.4215C15.6978 11.268 15.4897 11.1818 15.2727 11.1818H8.72727Z" fill="#F1416C"/>
</svg>
