<svg width="24" height="24" viewBox="0 0 24 24" fill="none" xmlns="http://www.w3.org/2000/svg">
<path d="M6.09375 4C5.27324 4 4.48633 4.38631 3.90614 5.07394C3.32595 5.76157 3 6.69421 3 7.66667V9.33333H21V7.66667C21 6.69421 20.6741 5.76157 20.0939 5.07394C19.5137 4.38631 18.7268 4 17.9062 4H6.09375ZM21 10.6667H3V16.3333C3 17.3058 3.32595 18.2384 3.90614 18.9261C4.48633 19.6137 5.27324 20 6.09375 20H17.9062C18.7268 20 19.5137 19.6137 20.0939 18.9261C20.6741 18.2384 21 17.3058 21 16.3333V10.6667ZM15.9375 16H18.1875C18.3367 16 18.4798 16.0702 18.5852 16.1953C18.6907 16.3203 18.75 16.4899 18.75 16.6667C18.75 16.8435 18.6907 17.013 18.5852 17.1381C18.4798 17.2631 18.3367 17.3333 18.1875 17.3333H15.9375C15.7883 17.3333 15.6452 17.2631 15.5398 17.1381C15.4343 17.013 15.375 16.8435 15.375 16.6667C15.375 16.4899 15.4343 16.3203 15.5398 16.1953C15.6452 16.0702 15.7883 16 15.9375 16Z" fill="#009EF7"/>
</svg>
