<svg width="32" height="32" viewBox="0 0 32 32" fill="none" xmlns="http://www.w3.org/2000/svg">
<path fill-rule="evenodd" clip-rule="evenodd" d="M26.5082 23.7389V5.41976C26.5082 4.76746 25.982 4.24463 25.3329 4.24463C24.6791 4.24463 24.1573 4.77079 24.1573 5.41976V23.7444L23.6673 23.2545C23.2051 22.7922 22.4643 22.7956 22.0052 23.2547C21.543 23.7169 21.5461 24.4577 22.005 24.9168L24.4987 27.4105C24.7551 27.6667 25.0971 27.7799 25.4293 27.7515C25.6961 27.7289 25.9565 27.6148 26.1609 27.4105L28.6546 24.9168C29.1168 24.4546 29.1135 23.7137 28.6544 23.2547C28.1922 22.7924 27.4511 22.7956 26.9923 23.2545L26.5082 23.7389ZM3 5.42026C3 4.77109 3.52777 4.24493 4.1706 4.24493H19.4607C20.1071 4.24493 20.6311 4.76656 20.6311 5.42026C20.6311 6.06944 20.1035 6.5956 19.4607 6.5956H4.1706C3.52399 6.5956 3 6.07397 3 5.42026ZM3 12.4727C3 11.8235 3.52596 11.2973 4.17377 11.2973H17.1064C17.7545 11.2973 18.2801 11.819 18.2801 12.4727C18.2801 13.1218 17.7542 13.648 17.1064 13.648H4.17377C3.52561 13.648 3 13.1264 3 12.4727ZM3 19.5251C3 18.8759 3.52283 18.3497 4.1702 18.3497H14.7594C15.4056 18.3497 15.9296 18.8714 15.9296 19.5251C15.9296 20.1742 15.4067 20.7004 14.7594 20.7004H4.1702C3.52399 20.7004 3 20.1788 3 19.5251ZM3 26.5775C3 25.9283 3.52581 25.4021 4.17201 25.4021H11.2315C11.8789 25.4021 12.4035 25.9238 12.4035 26.5775C12.4035 27.2267 11.8777 27.7528 11.2315 27.7528H4.17201C3.5248 27.7528 3 27.2312 3 26.5775Z" fill="#009EF7"/>
</svg>
