<svg width="24" height="24" viewBox="0 0 24 24" fill="none" xmlns="http://www.w3.org/2000/svg">
<path d="M6 11.9614C6 12.3545 6.146 12.6914 6.46045 12.9834L15.1978 21.541C15.4448 21.7881 15.7593 21.9229 16.1299 21.9229C16.8711 21.9229 17.4663 21.3389 17.4663 20.5864C17.4663 20.2158 17.3091 19.8901 17.062 19.6318L9.18945 11.9614L17.062 4.29102C17.3091 4.03271 17.4663 3.6958 17.4663 3.33643C17.4663 2.58398 16.8711 2 16.1299 2C15.7593 2 15.4448 2.13477 15.1978 2.38184L6.46045 10.9282C6.146 11.2314 6 11.5684 6 11.9614Z" fill="#009EF7"/>
</svg>
