<svg width="24" height="24" viewBox="0 0 24 24" fill="none" xmlns="http://www.w3.org/2000/svg">
<path d="M12.7199 10.8C12.2399 10.68 11.7599 10.44 11.3999 10.08C11.0399 9.96002 10.9199 9.60002 10.9199 9.36002C10.9199 9.12002 11.0399 8.76002 11.2799 8.64002C11.6399 8.40002 11.9999 8.16002 12.3599 8.28002C13.0799 8.28002 13.6799 8.64002 14.0399 9.12002L15.1199 7.68002C14.7599 7.32002 14.3999 7.08002 14.0399 6.84002C13.6799 6.60002 13.1999 6.48002 12.7199 6.48002V4.80002H11.2799V6.48002C10.6799 6.60002 10.0799 6.96002 9.5999 7.44002C9.1199 8.04002 8.7599 8.76002 8.8799 9.48002C8.8799 10.2 9.1199 10.92 9.5999 11.4C10.1999 12 11.0399 12.36 11.7599 12.72C12.1199 12.84 12.5999 13.08 12.9599 13.32C13.1999 13.56 13.3199 13.92 13.3199 14.28C13.3199 14.64 13.1999 15 12.9599 15.36C12.5999 15.72 12.1199 15.84 11.7599 15.84C11.2799 15.84 10.6799 15.72 10.3199 15.36C9.9599 15.12 9.5999 14.76 9.3599 14.4L8.1599 15.72C8.5199 16.2 8.8799 16.56 9.3599 16.92C9.9599 17.28 10.6799 17.64 11.3999 17.64V19.2H12.7199V17.4C13.4399 17.28 14.0399 16.92 14.5199 16.44C15.1199 15.84 15.4799 14.88 15.4799 14.04C15.4799 13.32 15.2399 12.48 14.6399 12C14.0399 11.4 13.4399 11.04 12.7199 10.8ZM11.9999 2.40002C6.7199 2.40002 2.3999 6.72002 2.3999 12C2.3999 17.28 6.7199 21.6 11.9999 21.6C17.2799 21.6 21.5999 17.28 21.5999 12C21.5999 6.72002 17.2799 2.40002 11.9999 2.40002ZM11.9999 20.28C7.4399 20.28 3.7199 16.56 3.7199 12C3.7199 7.44002 7.4399 3.72002 11.9999 3.72002C16.5599 3.72002 20.2799 7.44002 20.2799 12C20.2799 16.56 16.5599 20.28 11.9999 20.28Z" fill="#7F7F7F"/>
</svg>
