<svg width="24" height="24" viewBox="0 0 24 24" fill="none" xmlns="http://www.w3.org/2000/svg">
<g clip-path="url(#clip0_911_15370)">
<path d="M17.3438 4.875H14.375C14.375 3.56504 13.31 2.5 12 2.5C10.69 2.5 9.625 3.56504 9.625 4.875H6.65625C5.67285 4.875 4.875 5.67285 4.875 6.65625V19.7188C4.875 20.7021 5.67285 21.5 6.65625 21.5H17.3438C18.3271 21.5 19.125 20.7021 19.125 19.7188V6.65625C19.125 5.67285 18.3271 4.875 17.3438 4.875ZM8.4375 18.2344C7.94395 18.2344 7.54688 17.8373 7.54688 17.3438C7.54688 16.8502 7.94395 16.4531 8.4375 16.4531C8.93105 16.4531 9.32812 16.8502 9.32812 17.3438C9.32812 17.8373 8.93105 18.2344 8.4375 18.2344ZM8.4375 14.6719C7.94395 14.6719 7.54688 14.2748 7.54688 13.7812C7.54688 13.2877 7.94395 12.8906 8.4375 12.8906C8.93105 12.8906 9.32812 13.2877 9.32812 13.7812C9.32812 14.2748 8.93105 14.6719 8.4375 14.6719ZM8.4375 11.1094C7.94395 11.1094 7.54688 10.7123 7.54688 10.2188C7.54688 9.7252 7.94395 9.32812 8.4375 9.32812C8.93105 9.32812 9.32812 9.7252 9.32812 10.2188C9.32812 10.7123 8.93105 11.1094 8.4375 11.1094ZM12 3.98438C12.4936 3.98438 12.8906 4.38145 12.8906 4.875C12.8906 5.36855 12.4936 5.76562 12 5.76562C11.5064 5.76562 11.1094 5.36855 11.1094 4.875C11.1094 4.38145 11.5064 3.98438 12 3.98438ZM16.75 17.6406C16.75 17.8039 16.6164 17.9375 16.4531 17.9375H11.1094C10.9461 17.9375 10.8125 17.8039 10.8125 17.6406V17.0469C10.8125 16.8836 10.9461 16.75 11.1094 16.75H16.4531C16.6164 16.75 16.75 16.8836 16.75 17.0469V17.6406ZM16.75 14.0781C16.75 14.2414 16.6164 14.375 16.4531 14.375H11.1094C10.9461 14.375 10.8125 14.2414 10.8125 14.0781V13.4844C10.8125 13.3211 10.9461 13.1875 11.1094 13.1875H16.4531C16.6164 13.1875 16.75 13.3211 16.75 13.4844V14.0781ZM16.75 10.5156C16.75 10.6789 16.6164 10.8125 16.4531 10.8125H11.1094C10.9461 10.8125 10.8125 10.6789 10.8125 10.5156V9.92188C10.8125 9.75859 10.9461 9.625 11.1094 9.625H16.4531C16.6164 9.625 16.75 9.75859 16.75 9.92188V10.5156Z" fill="#1E1E2D"/>
</g>
<defs>
<clipPath id="clip0_911_15370">
<rect width="14.25" height="19" fill="white" transform="translate(4.875 2.5)"/>
</clipPath>
</defs>
</svg>
