<svg width="24" height="24" viewBox="0 0 24 24" fill="none" xmlns="http://www.w3.org/2000/svg">
<path d="M21.6587 4.89134C21.4463 4.30796 21.1085 3.77824 20.6692 3.33949C20.2299 2.90074 19.6998 2.56363 19.1162 2.35189C18.0255 2 17.033 2 15.0179 2H8.96647C6.96765 2 5.95825 2 4.88446 2.33189C4.29974 2.54529 3.76899 2.88444 3.32966 3.32539C2.89033 3.76633 2.55314 4.29833 2.34189 4.88384C2 5.96762 2 6.96703 2 8.96584V15.0242C2 17.033 2 18.0255 2.33189 19.1093C2.54434 19.6927 2.88211 20.2224 3.3214 20.6611C3.76069 21.0999 4.29082 21.437 4.87446 21.6487C5.95825 21.9906 6.95765 21.9906 8.95959 21.9906H15.0242C17.033 21.9906 18.0324 21.9906 19.1093 21.6587C19.6948 21.4464 20.2266 21.108 20.667 20.6676C21.1074 20.2272 21.4457 19.6954 21.6581 19.1099C22 18.0261 22 17.0267 22 15.0248V8.98272C22 6.9739 22 5.9745 21.6581 4.89071L21.6587 4.89134ZM16.5186 8.75208L15.7404 9.52711C15.6645 9.59624 15.5658 9.63508 15.4632 9.63623C15.3605 9.63738 15.261 9.60077 15.1835 9.53336C14.4318 8.902 13.4826 8.55411 12.501 8.5502C11.6903 8.5502 10.8828 8.81709 10.8828 9.55961C10.8828 10.3084 11.7484 10.559 12.7478 10.9334C14.4991 11.5197 15.9479 12.2516 15.9479 13.9672C15.9479 15.8361 14.4991 17.1186 12.1328 17.2586L11.9147 18.2611C11.8957 18.3523 11.8459 18.4342 11.7736 18.4929C11.7013 18.5517 11.611 18.5837 11.5178 18.5836H10.0234L9.94837 18.5774C9.84199 18.553 9.74939 18.4879 9.69039 18.3961C9.63139 18.3043 9.6107 18.193 9.63274 18.0861L9.86712 17.028C8.96829 16.8024 8.14155 16.352 7.46455 15.7192V15.7092C7.38951 15.6341 7.34736 15.5322 7.34736 15.426C7.34736 15.3199 7.38951 15.218 7.46455 15.1429L8.2977 14.3354C8.37392 14.2649 8.47391 14.2258 8.57771 14.2258C8.68151 14.2258 8.78149 14.2649 8.85771 14.3354C9.62071 15.0556 10.6343 15.4502 11.6834 15.4354C12.7672 15.4354 13.4904 14.9767 13.4904 14.2504C13.4904 13.5241 12.7578 13.3354 11.3747 12.8178C9.9065 12.2934 8.51645 11.5515 8.51645 9.81649C8.51645 7.80143 10.1896 6.81827 12.1753 6.72702L12.3834 5.70136C12.4026 5.60989 12.4532 5.52798 12.5263 5.46979C12.5995 5.41159 12.6906 5.38076 12.7841 5.3826H14.2654L14.3498 5.39261C14.4013 5.40338 14.4502 5.42423 14.4937 5.45396C14.5372 5.48369 14.5744 5.52171 14.6031 5.56585C14.6319 5.60998 14.6516 5.65936 14.6612 5.71115C14.6708 5.76293 14.6701 5.81611 14.6591 5.86762L14.4348 7.01016C15.1903 7.25973 15.891 7.65205 16.4986 8.16582L16.518 8.18519C16.6742 8.35145 16.6742 8.60208 16.518 8.75146L16.5186 8.75208Z" fill="#009EF7"/>
</svg>
