<svg width="24" height="24" viewBox="0 0 24 24" fill="none" xmlns="http://www.w3.org/2000/svg">
<path fill-rule="evenodd" clip-rule="evenodd" d="M12.3003 1C9.58988 1 7.12008 1.89527 5.65896 2.62674C5.52694 2.69274 5.40393 2.75755 5.28932 2.81995C5.06251 2.94356 4.86929 3.05877 4.71568 3.16018L6.37782 5.60718L7.16028 5.91861C10.2181 7.46134 14.3189 7.46134 17.3773 5.91861L18.2654 5.45777L19.8375 3.16018C19.5118 2.94776 19.1731 2.75597 18.8235 2.58593C17.3701 1.86227 14.9597 1 12.3003 1ZM8.43419 3.76983C7.84561 3.65969 7.26428 3.51381 6.69344 3.33299C8.06216 2.72514 10.1023 2.08009 12.2997 2.08009C13.822 2.08009 15.2616 2.38972 16.4521 2.78215C15.0569 2.97837 13.5682 3.31139 12.1497 3.72123C11.0336 4.04405 9.72909 4.00925 8.43419 3.76983ZM18.011 6.80848L17.864 6.88289C14.4995 8.57983 10.0375 8.57983 6.67304 6.88289L6.53383 6.81208C1.48021 12.3571 -2.37811 22.6 12.3003 22.6C26.9775 22.6 23.025 12.1657 18.011 6.80848ZM11.6763 11.8009C11.358 11.8009 11.0527 11.9273 10.8277 12.1524C10.6026 12.3775 10.4762 12.6827 10.4762 13.001C10.4762 13.3193 10.6026 13.6245 10.8277 13.8496C11.0527 14.0747 11.358 14.2011 11.6763 14.2011V11.8009ZM12.8764 10.6008V10.0008H11.6763V10.6008C11.0397 10.6008 10.4292 10.8537 9.97906 11.3038C9.52893 11.7539 9.27606 12.3644 9.27606 13.001C9.27606 13.6376 9.52893 14.2481 9.97906 14.6982C10.4292 15.1483 11.0397 15.4012 11.6763 15.4012V17.8014C11.4281 17.8015 11.186 17.7246 10.9833 17.5813C10.7806 17.4381 10.6273 17.2355 10.5446 17.0015C10.4916 16.8515 10.3811 16.7286 10.2375 16.6599C10.0939 16.5913 9.92897 16.5825 9.7789 16.6355C9.62883 16.6885 9.50595 16.7989 9.43731 16.9425C9.36867 17.0861 9.35987 17.2511 9.41287 17.4012C9.57839 17.8692 9.88492 18.2744 10.2903 18.561C10.6956 18.8476 11.1798 19.0015 11.6763 19.0015V19.6016H12.8764V19.0015C13.5129 19.0015 14.1234 18.7486 14.5736 18.2985C15.0237 17.8484 15.2766 17.2379 15.2766 16.6013C15.2766 15.9647 15.0237 15.3542 14.5736 14.9041C14.1234 14.454 13.5129 14.2011 12.8764 14.2011V11.8009C13.3984 11.8009 13.843 12.1339 14.0087 12.6008C14.0332 12.6771 14.0729 12.7478 14.1252 12.8086C14.1776 12.8694 14.2416 12.9191 14.3135 12.9547C14.3854 12.9903 14.4637 13.0111 14.5438 13.016C14.6239 13.0208 14.7041 13.0095 14.7798 12.9828C14.8554 12.956 14.9249 12.9144 14.9842 12.8604C15.0435 12.8063 15.0913 12.7409 15.1249 12.668C15.1585 12.5951 15.1771 12.5163 15.1796 12.4361C15.1822 12.3559 15.1686 12.276 15.1397 12.2011C14.9742 11.7331 14.6677 11.3279 14.2624 11.0413C13.857 10.7547 13.3728 10.6008 12.8764 10.6008ZM12.8764 15.4012V17.8014C13.1946 17.8014 13.4999 17.675 13.725 17.4499C13.95 17.2248 14.0765 16.9196 14.0765 16.6013C14.0765 16.283 13.95 15.9778 13.725 15.7527C13.4999 15.5276 13.1946 15.4012 12.8764 15.4012Z" fill="#009EF7"/>
</svg>
