<svg width="24" height="24" viewBox="0 0 24 24" fill="none" xmlns="http://www.w3.org/2000/svg">
<path d="M12.2112 19.6296C11.9357 19.6582 11.6498 19.6724 11.3573 19.6724C6.63976 19.6724 2.82782 15.7239 3.05097 10.959C3.24937 6.72886 6.73027 3.24857 10.9609 3.05086C15.7257 2.82857 19.6734 6.64053 19.6734 11.3571C19.6734 11.6488 19.6587 11.934 19.6301 12.2105C19.6021 12.4787 19.7947 12.7198 20.0602 12.7651C20.3611 12.8167 20.6371 12.599 20.6678 12.2955C20.6985 11.9904 20.7142 11.6769 20.7142 11.3572C20.7142 5.8457 15.9239 1.43169 10.2884 2.05965C6.00305 2.53805 2.53861 6.00182 2.06017 10.2869C1.43065 15.9229 5.8451 20.7145 11.3573 20.7145C11.6775 20.7145 11.9915 20.6988 12.2955 20.6682C12.5996 20.6375 12.8168 20.361 12.7652 20.0601C12.7193 19.7944 12.4793 19.6022 12.2111 19.63L12.2112 19.6296Z" fill="#009EF7"/>
<path d="M17.6053 13.2108C15.1841 13.2108 13.2107 15.1842 13.2107 17.6054C13.2107 20.0266 15.1841 22 17.6053 22C20.0265 22 21.9999 20.0266 21.9999 17.6054C22.0001 15.1842 20.0265 13.2108 17.6053 13.2108ZM20.2141 17.6732C20.2141 17.9597 19.985 18.194 19.6934 18.194H15.5174C15.2257 18.194 14.9966 17.9597 14.9966 17.6732V17.543C14.9966 17.2565 15.2257 17.0222 15.5174 17.0222H19.6934C19.985 17.0222 20.2141 17.2565 20.2141 17.543V17.6732Z" fill="#009EF7"/>
<path d="M11.357 10.836C10.6666 10.836 10.1047 10.2741 10.1047 9.58369C10.1047 8.89329 10.6666 8.33139 11.357 8.33139C12.0474 8.33139 12.6093 8.89329 12.6093 9.58369C12.6093 9.87118 12.8426 10.1044 13.13 10.1044C13.4175 10.1044 13.6508 9.87118 13.6508 9.58369C13.6508 8.54236 12.9494 7.67116 11.997 7.39208V6.35999C11.997 6.0725 11.7637 5.83923 11.4762 5.83923C11.1888 5.83923 10.9555 6.0725 10.9555 6.35999V7.33054C9.8817 7.52161 9.06268 8.45626 9.06268 9.58351C9.06268 10.8484 10.0916 11.8771 11.3563 11.8771C12.0467 11.8771 12.6086 12.4396 12.6086 13.1299C12.6086 13.8203 12.0467 14.3822 11.3563 14.3822C10.6659 14.3822 10.104 13.8203 10.104 13.1299C10.104 12.8419 9.87074 12.6092 9.58326 12.6092C9.29577 12.6092 9.0625 12.8419 9.0625 13.1299C9.0625 14.2572 9.88157 15.1924 10.9553 15.3829V16.3545C10.9553 16.6425 11.1886 16.8753 11.4761 16.8753C11.7635 16.8753 11.9968 16.6425 11.9968 16.3545V15.3214C12.9492 15.0423 13.6506 14.1706 13.6506 13.1298C13.6508 11.8648 12.6218 10.836 11.357 10.836Z" fill="#009EF7"/>
</svg>
