<svg width="24" height="24" viewBox="0 0 24 24" fill="none" xmlns="http://www.w3.org/2000/svg">
<path d="M12 1.20001C6.02395 1.20001 1.19995 6.02401 1.19995 12C1.19995 17.976 6.02395 22.8 12 22.8C17.976 22.8 22.8 17.976 22.8 12C22.8 6.02401 17.976 1.20001 12 1.20001ZM12.0239 18.504C8.75994 18.504 6.11994 15.864 6.11994 12.624C6.11994 9.55201 8.47193 7.03201 11.4719 6.76801V5.44801H10.944C10.656 5.44801 10.416 5.20801 10.416 4.92005C10.416 4.63209 10.656 4.39209 10.944 4.39209H13.032C13.3199 4.39209 13.5599 4.63209 13.5599 4.92005C13.5599 5.20801 13.3199 5.44801 13.032 5.44801H12.504V6.76801C13.632 6.86403 14.688 7.29597 15.552 7.94403L16.248 7.27199C16.5601 6.95995 17.0641 6.95995 17.352 7.24801C17.6641 7.56005 17.6641 8.06403 17.352 8.35199L16.656 9.04801C17.424 10.032 17.88 11.28 17.88 12.624C17.9279 15.864 15.288 18.504 12.024 18.504L12.0239 18.504ZM12.0239 7.92001C9.43194 7.92001 7.31994 10.032 7.31994 12.624C7.31994 15.216 9.40794 17.328 12.0239 17.328C14.6159 17.328 16.7279 15.216 16.7279 12.624C16.7279 10.032 14.6159 7.92001 12.0239 7.92001ZM11.3039 11.88C11.4479 12.024 11.6879 12.12 11.9519 12.12C12.4799 12.12 12.9359 12.312 13.2719 12.624C13.5119 12.888 13.6559 13.2 13.6559 13.512C13.6559 14.1599 13.1279 14.688 12.4079 14.832V15.36C12.4079 15.624 12.1919 15.816 11.9519 15.816C11.6879 15.816 11.4719 15.6 11.4959 15.36V14.832C11.1599 14.76 10.8719 14.616 10.6559 14.376C10.3919 14.136 10.2719 13.824 10.2719 13.4881C10.2719 13.2241 10.4879 13.032 10.7519 13.032C11.0159 13.032 11.2079 13.2481 11.2079 13.4881C11.2079 13.5841 11.2559 13.6801 11.3279 13.7281C11.4719 13.872 11.7359 13.9681 11.9759 13.9681C12.4319 13.9681 12.7438 13.7041 12.7438 13.4881C12.7438 13.392 12.6959 13.296 12.6238 13.2481C12.4799 13.1041 12.2399 13.0081 11.9759 13.0081C11.4719 13.0081 10.9919 12.816 10.6799 12.5041C10.4159 12.2401 10.2959 11.9281 10.2959 11.6161C10.2959 10.9682 10.8238 10.4401 11.5199 10.2961V9.76815C11.5199 9.50417 11.7359 9.31213 11.9999 9.31213C12.2638 9.31213 12.4559 9.52815 12.4559 9.79213V10.3201C12.7199 10.3921 12.9359 10.4881 13.1279 10.6321C13.4879 10.8961 13.68 11.2801 13.68 11.6642C13.68 11.9282 13.4639 12.1202 13.2 12.1202C12.936 12.1202 12.7439 11.9042 12.7439 11.6642C12.7439 11.5202 12.6239 11.4242 12.576 11.3762C12.432 11.2562 12.216 11.1842 11.976 11.1842C11.5199 11.1842 11.208 11.4242 11.208 11.6642C11.1839 11.76 11.256 11.8321 11.3039 11.88L11.3039 11.88Z" fill="#009EF7"/>
</svg>
