<svg width="48" height="48" viewBox="0 0 48 48" fill="none" xmlns="http://www.w3.org/2000/svg">
<path fill-rule="evenodd" clip-rule="evenodd" d="M24 6C14.0591 6 6 14.0591 6 24C6 33.9409 14.0591 42 24 42C33.9409 42 42 33.9409 42 24C42 14.0591 33.9409 6 24 6ZM17.4545 22.3636C17.0206 22.3636 16.6043 22.536 16.2975 22.8429C15.9906 23.1498 15.8182 23.566 15.8182 24C15.8182 24.434 15.9906 24.8502 16.2975 25.1571C16.6043 25.464 17.0206 25.6364 17.4545 25.6364H30.5455C30.9794 25.6364 31.3957 25.464 31.7025 25.1571C32.0094 24.8502 32.1818 24.434 32.1818 24C32.1818 23.566 32.0094 23.1498 31.7025 22.8429C31.3957 22.536 30.9794 22.3636 30.5455 22.3636H17.4545Z" fill="#F1416C"/>
</svg>
