<svg width="24" height="24" viewBox="0 0 24 24" fill="none" xmlns="http://www.w3.org/2000/svg">
<path d="M21.1333 3.33333H3.53325C2.31995 3.33333 1.33325 4.32003 1.33325 5.53333V18.7333C1.33325 19.9466 2.31995 20.9333 3.53325 20.9333H21.1333C22.3466 20.9333 23.3333 19.9466 23.3333 18.7333V5.53333C23.3333 4.32003 22.3466 3.33333 21.1333 3.33333ZM12.8833 16.5333C12.1539 16.5333 11.4544 16.2436 10.9387 15.7279C10.423 15.2121 10.1333 14.5127 10.1333 13.7833C10.1333 13.054 10.423 12.3545 10.9387 11.8388C11.4544 11.3231 12.1539 11.0333 12.8833 11.0333C13.4802 11.0347 14.0601 11.2326 14.5333 11.5965C13.8689 12.0981 13.4333 12.8868 13.4333 13.7833C13.4333 14.6798 13.8689 15.4685 14.5333 15.9701C14.0601 16.334 13.4802 16.5319 12.8833 16.5333ZM17.2833 16.5333C16.5539 16.5333 15.8544 16.2436 15.3387 15.7279C14.823 15.2121 14.5333 14.5127 14.5333 13.7833C14.5333 13.054 14.823 12.3545 15.3387 11.8388C15.8544 11.3231 16.5539 11.0333 17.2833 11.0333C18.0126 11.0333 18.7121 11.3231 19.2278 11.8388C19.7435 12.3545 20.0333 13.054 20.0333 13.7833C20.0333 14.5127 19.7435 15.2121 19.2278 15.7279C18.7121 16.2436 18.0126 16.5333 17.2833 16.5333Z" fill="#009EF7"/>
</svg>
