<svg width="48" height="48" viewBox="0 0 48 48" fill="none" xmlns="http://www.w3.org/2000/svg">
<path d="M24 6C33.9414 6 42 14.0586 42 24C42 33.9414 33.9414 42 24 42C14.0586 42 6 33.9414 6 24C6 14.0586 14.0586 6 24 6ZM24 15C23.6738 15 23.3586 15.1182 23.1127 15.3326C22.8669 15.547 22.707 15.8432 22.6626 16.1664L22.65 16.35V22.65H16.35C16.008 22.6501 15.6787 22.78 15.4288 23.0136C15.1788 23.2471 15.0269 23.5667 15.0036 23.908C14.9802 24.2492 15.0873 24.5866 15.3032 24.8519C15.519 25.1173 15.8275 25.2908 16.1664 25.3374L16.35 25.35H22.65V31.65C22.6501 31.992 22.78 32.3213 23.0136 32.5712C23.2471 32.8212 23.5667 32.9731 23.908 32.9964C24.2492 33.0198 24.5866 32.9127 24.8519 32.6968C25.1173 32.481 25.2908 32.1724 25.3374 31.8336L25.35 31.65V25.35H31.65C31.992 25.3499 32.3213 25.22 32.5712 24.9864C32.8212 24.7529 32.9731 24.4333 32.9964 24.092C33.0198 23.7508 32.9127 23.4134 32.6968 23.1481C32.481 22.8827 32.1724 22.7092 31.8336 22.6626L31.65 22.65H25.35V16.35C25.35 15.992 25.2078 15.6486 24.9546 15.3954C24.7014 15.1422 24.358 15 24 15Z" fill="#009EF7"/>
</svg>
