<svg width="24" height="24" viewBox="0 0 24 24" fill="none" xmlns="http://www.w3.org/2000/svg">
<path fill-rule="evenodd" clip-rule="evenodd" d="M19.125 11.9999C19.1255 13.5463 18.5951 15.046 17.6224 16.2481C16.6497 17.4503 15.2937 18.282 13.7813 18.6041C12.2688 18.9263 10.6916 18.7194 9.31343 18.018C7.93526 17.3166 6.83971 16.1633 6.21 14.7509L4.1235 15.5984C4.95063 17.4936 6.40505 19.0462 8.24223 19.9953C10.0794 20.9443 12.1873 21.2319 14.2116 20.8096C16.2358 20.3874 18.053 19.2811 19.3575 17.6767C20.6621 16.0724 21.3745 14.0678 21.375 11.9999C21.3751 10.1215 20.7874 8.29018 19.6944 6.76253C18.6014 5.23488 17.0578 4.08751 15.2799 3.48122C13.5021 2.87492 11.5791 2.8401 9.78041 3.38162C7.98176 3.92314 6.39762 5.01386 5.25 6.50093V3.74993H3V9.74993L4.125 10.8749H9.375V8.62493H6.528C7.27066 7.33744 8.41751 6.33107 9.79058 5.76199C11.1636 5.1929 12.6862 5.09293 14.1219 5.47758C15.5576 5.86224 16.8261 6.71 17.7308 7.88933C18.6354 9.06866 19.1255 10.5136 19.125 11.9999V11.9999Z" fill="#009EF7"/>
</svg>
