<svg width="24" height="24" viewBox="0 0 24 24" fill="none" xmlns="http://www.w3.org/2000/svg">
<path d="M21.1154 17.8157L16.7434 14.3188C17.8069 12.657 18.2189 10.6608 17.9005 8.7134C17.5821 6.76633 16.5556 5.00537 15.0182 3.76916C13.4806 2.5326 11.5407 1.90758 9.5705 2.01413C7.60041 2.1207 5.73921 2.9513 4.34394 4.34638C2.94886 5.74146 2.11827 7.60288 2.01169 9.57294C1.90512 11.5432 2.53017 13.4833 3.76672 15.0206C5.00312 16.5581 6.76408 17.5846 8.71096 17.903C10.6582 18.2213 12.6543 17.8093 14.3164 16.7458L17.8133 21.1167C18.2304 21.6393 18.8501 21.9598 19.5177 21.9978H19.6507C20.3036 21.9982 20.9273 21.7266 21.372 21.2482C21.8165 20.7698 22.0417 20.128 21.9936 19.4767C21.9455 18.8254 21.6282 18.2237 21.1182 17.8158L21.1154 17.8157ZM4.0427 10.0285C4.0427 8.44126 4.67323 6.91912 5.79549 5.79674C6.9179 4.67449 8.44004 4.04396 10.0273 4.04396C11.6145 4.04396 13.1367 4.67449 14.2591 5.79674C15.3813 6.91915 16.0118 8.4413 16.0118 10.0285C16.0118 11.6158 15.3813 13.1379 14.2591 14.2603C13.1367 15.3826 11.6145 16.0131 10.0273 16.0131C8.44057 16.0113 6.91934 15.3802 5.79739 14.2582C4.67543 13.1364 4.04429 11.6152 4.04251 10.0283L4.0427 10.0285Z" fill="#181818"/>
</svg>
