<svg width="36" height="36" viewBox="0 0 36 36" fill="none" xmlns="http://www.w3.org/2000/svg">
<path d="M19.5 5.25C19.5 4.65326 19.2629 4.08097 18.841 3.65901C18.419 3.23705 17.8467 3 17.25 3C16.6533 3 16.081 3.23705 15.659 3.65901C15.2371 4.08097 15 4.65326 15 5.25V15H5.25C4.65326 15 4.08097 15.2371 3.65901 15.659C3.23705 16.081 3 16.6533 3 17.25C3 17.8467 3.23705 18.419 3.65901 18.841C4.08097 19.2629 4.65326 19.5 5.25 19.5H15V29.25C15 29.8467 15.2371 30.419 15.659 30.841C16.081 31.2629 16.6533 31.5 17.25 31.5C17.8467 31.5 18.419 31.2629 18.841 30.841C19.2629 30.419 19.5 29.8467 19.5 29.25V19.5H29.25C29.8467 19.5 30.419 19.2629 30.841 18.841C31.2629 18.419 31.5 17.8467 31.5 17.25C31.5 16.6533 31.2629 16.081 30.841 15.659C30.419 15.2371 29.8467 15 29.25 15H19.5V5.25Z" fill="white"/>
</svg>
