<svg width="26" height="32" viewBox="0 0 26 32" fill="none" xmlns="http://www.w3.org/2000/svg">
<path d="M9.03571 5.76012C9.27679 5.29425 9.77232 5 10.3125 5H15.6875C16.2277 5 16.7232 5.29425 16.9643 5.76012L17.2857 6.375H21.5714C22.3616 6.375 23 6.99074 23 7.75C23 8.50926 22.3616 9.125 21.5714 9.125H4.42857C3.63973 9.125 3 8.50926 3 7.75C3 6.99074 3.63973 6.375 4.42857 6.375H8.71429L9.03571 5.76012ZM4.38839 10.5H21.5714V24.25C21.5714 25.7668 20.2902 27 18.7143 27H7.24554C5.70759 27 4.38839 25.7668 4.38839 24.25V10.5ZM7.95982 13.9375V23.5625C7.95982 23.9406 8.32143 24.25 8.67411 24.25C9.10714 24.25 9.38839 23.9406 9.38839 23.5625V13.9375C9.38839 13.5594 9.10714 13.25 8.67411 13.25C8.32143 13.25 7.95982 13.5594 7.95982 13.9375ZM12.2455 13.9375V23.5625C12.2455 23.9406 12.6071 24.25 12.9598 24.25C13.3929 24.25 13.7143 23.9406 13.7143 23.5625V13.9375C13.7143 13.5594 13.3929 13.25 12.9598 13.25C12.6071 13.25 12.2455 13.5594 12.2455 13.9375ZM16.5714 13.9375V23.5625C16.5714 23.9406 16.8929 24.25 17.2857 24.25C17.6786 24.25 18 23.9406 18 23.5625V13.9375C18 13.5594 17.6786 13.25 17.2857 13.25C16.8929 13.25 16.5714 13.5594 16.5714 13.9375Z" fill="#009EF7"/>
</svg>
