<svg width="24" height="24" viewBox="0 0 24 24" fill="none" xmlns="http://www.w3.org/2000/svg">
<path d="M21.1154 17.8156L16.7434 14.3187C17.8069 12.6569 18.2189 10.6607 17.9005 8.71328C17.5821 6.76621 16.5556 5.00525 15.0182 3.76903C13.4806 2.53248 11.5407 1.90746 9.5705 2.014C7.60041 2.12058 5.73921 2.95118 4.34394 4.34626C2.94886 5.74134 2.11827 7.60276 2.01169 9.57282C1.90512 11.5431 2.53017 13.4831 3.76672 15.0205C5.00312 16.5579 6.76408 17.5845 8.71096 17.9028C10.6582 18.2212 12.6543 17.8092 14.3164 16.7457L17.8133 21.1165C18.2304 21.6392 18.8501 21.9596 19.5177 21.9976H19.6507C20.3036 21.9981 20.9273 21.7265 21.372 21.2481C21.8165 20.7697 22.0417 20.1279 21.9936 19.4766C21.9455 18.8253 21.6282 18.2235 21.1182 17.8157L21.1154 17.8156ZM4.0427 10.0284C4.0427 8.44114 4.67323 6.91899 5.79549 5.79662C6.9179 4.67436 8.44004 4.04383 10.0273 4.04383C11.6145 4.04383 13.1367 4.67436 14.2591 5.79662C15.3813 6.91903 16.0118 8.44118 16.0118 10.0284C16.0118 11.6156 15.3813 13.1378 14.2591 14.2602C13.1367 15.3825 11.6145 16.013 10.0273 16.013C8.44057 16.0112 6.91934 15.3801 5.79739 14.2581C4.67543 13.1363 4.04429 11.615 4.04251 10.0282L4.0427 10.0284Z" fill="#009EF7"/>
</svg>
