<svg width="32" height="32" viewBox="0 0 32 32" fill="none" xmlns="http://www.w3.org/2000/svg">
<g clip-path="url(#clip0_1898_15014)">
<path d="M10.8464 2.16947C11.1598 1.54025 11.804 1.14282 12.5062 1.14282H19.4938C20.196 1.14282 20.8402 1.54025 21.1536 2.16947L21.5714 2.99997H27.1429C28.1701 2.99997 29 3.83162 29 4.85711C29 5.8826 28.1701 6.71425 27.1429 6.71425H4.85714C3.83165 6.71425 3 5.8826 3 4.85711C3 3.83162 3.83165 2.99997 4.85714 2.99997H10.4286L10.8464 2.16947V2.16947ZM4.80491 8.57139H27.1429V27.1428C27.1429 29.1915 25.4772 30.8571 23.4286 30.8571H8.5192C6.51987 30.8571 4.80491 29.1915 4.80491 27.1428V8.57139V8.57139ZM9.44777 13.2143V26.2143C9.44777 26.725 9.91786 27.1428 10.3763 27.1428C10.9393 27.1428 11.3049 26.725 11.3049 26.2143V13.2143C11.3049 12.7035 10.9393 12.2857 10.3763 12.2857C9.91786 12.2857 9.44777 12.7035 9.44777 13.2143ZM15.0192 13.2143V26.2143C15.0192 26.725 15.4893 27.1428 15.9478 27.1428C16.5107 27.1428 16.9286 26.725 16.9286 26.2143V13.2143C16.9286 12.7035 16.5107 12.2857 15.9478 12.2857C15.4893 12.2857 15.0192 12.7035 15.0192 13.2143ZM20.6429 13.2143V26.2143C20.6429 26.725 21.0607 27.1428 21.5714 27.1428C22.0821 27.1428 22.5 26.725 22.5 26.2143V13.2143C22.5 12.7035 22.0821 12.2857 21.5714 12.2857C21.0607 12.2857 20.6429 12.7035 20.6429 13.2143Z" fill="#009EF7"/>
</g>
<defs>
<clipPath id="clip0_1898_15014">
<rect width="26" height="29.7143" fill="white" transform="translate(3 1.14282)"/>
</clipPath>
</defs>
</svg>
